<mxfile host="app.diagrams.net" modified="2024-05-23T22:27:23.495Z" agent="Mozilla/5.0 (Windows NT 10.0; Win64; x64) AppleWebKit/537.36 (KHTML, like Gecko) Chrome/123.0.0.0 Safari/537.36 OPR/109.0.0.0" etag="10XUlwJm8KM0DwakaE9a" version="24.4.7" type="device">
  <diagram name="Page-1" id="9361dd3d-8414-5efd-6122-117bd74ce7a7">
    <mxGraphModel dx="2618" dy="3068" grid="1" gridSize="10" guides="1" tooltips="1" connect="1" arrows="1" fold="1" page="0" pageScale="1.5" pageWidth="826" pageHeight="1169" background="none" math="0" shadow="0">
      <root>
        <mxCell id="0" />
        <mxCell id="1" parent="0" />
        <mxCell id="c4g44j7E7EHangzDf9bN-89" value="Cliente" style="swimlane;fontStyle=1;align=center;verticalAlign=top;childLayout=stackLayout;horizontal=1;startSize=26;horizontalStack=0;resizeParent=1;resizeParentMax=0;resizeLast=0;collapsible=1;marginBottom=0;" parent="1" vertex="1">
          <mxGeometry x="-140" y="-1811" width="310" height="528" as="geometry">
            <mxRectangle x="260" y="-1520" width="80" height="30" as="alternateBounds" />
          </mxGeometry>
        </mxCell>
        <mxCell id="c4g44j7E7EHangzDf9bN-90" value="- DNI: int" style="text;strokeColor=none;fillColor=none;align=left;verticalAlign=top;spacingLeft=4;spacingRight=4;overflow=hidden;rotatable=0;points=[[0,0.5],[1,0.5]];portConstraint=eastwest;" parent="c4g44j7E7EHangzDf9bN-89" vertex="1">
          <mxGeometry y="26" width="310" height="26" as="geometry" />
        </mxCell>
        <mxCell id="c4g44j7E7EHangzDf9bN-98" value="- nombre: char(30)" style="text;strokeColor=none;fillColor=none;align=left;verticalAlign=top;spacingLeft=4;spacingRight=4;overflow=hidden;rotatable=0;points=[[0,0.5],[1,0.5]];portConstraint=eastwest;" parent="c4g44j7E7EHangzDf9bN-89" vertex="1">
          <mxGeometry y="52" width="310" height="26" as="geometry" />
        </mxCell>
        <mxCell id="c4g44j7E7EHangzDf9bN-100" value="- apellido: char(30)" style="text;strokeColor=none;fillColor=none;align=left;verticalAlign=top;spacingLeft=4;spacingRight=4;overflow=hidden;rotatable=0;points=[[0,0.5],[1,0.5]];portConstraint=eastwest;" parent="c4g44j7E7EHangzDf9bN-89" vertex="1">
          <mxGeometry y="78" width="310" height="26" as="geometry" />
        </mxCell>
        <mxCell id="c4g44j7E7EHangzDf9bN-104" value="- telefono: int" style="text;strokeColor=none;fillColor=none;align=left;verticalAlign=top;spacingLeft=4;spacingRight=4;overflow=hidden;rotatable=0;points=[[0,0.5],[1,0.5]];portConstraint=eastwest;" parent="c4g44j7E7EHangzDf9bN-89" vertex="1">
          <mxGeometry y="104" width="310" height="26" as="geometry" />
        </mxCell>
        <mxCell id="2fABJtACopKfKaQ5gNMw-1" value="- estado: bool" style="text;strokeColor=none;fillColor=none;align=left;verticalAlign=top;spacingLeft=4;spacingRight=4;overflow=hidden;rotatable=0;points=[[0,0.5],[1,0.5]];portConstraint=eastwest;" parent="c4g44j7E7EHangzDf9bN-89" vertex="1">
          <mxGeometry y="130" width="310" height="26" as="geometry" />
        </mxCell>
        <mxCell id="c4g44j7E7EHangzDf9bN-91" value="" style="line;strokeWidth=1;fillColor=none;align=left;verticalAlign=middle;spacingTop=-1;spacingLeft=3;spacingRight=3;rotatable=0;labelPosition=right;points=[];portConstraint=eastwest;strokeColor=inherit;" parent="c4g44j7E7EHangzDf9bN-89" vertex="1">
          <mxGeometry y="156" width="310" height="8" as="geometry" />
        </mxCell>
        <mxCell id="c4g44j7E7EHangzDf9bN-128" value="+ Cliente(int, const char, const char, int): " style="text;strokeColor=none;fillColor=none;align=left;verticalAlign=top;spacingLeft=4;spacingRight=4;overflow=hidden;rotatable=0;points=[[0,0.5],[1,0.5]];portConstraint=eastwest;" parent="c4g44j7E7EHangzDf9bN-89" vertex="1">
          <mxGeometry y="164" width="310" height="26" as="geometry" />
        </mxCell>
        <mxCell id="c4g44j7E7EHangzDf9bN-92" value="+ Cargar(): bool" style="text;strokeColor=none;fillColor=none;align=left;verticalAlign=top;spacingLeft=4;spacingRight=4;overflow=hidden;rotatable=0;points=[[0,0.5],[1,0.5]];portConstraint=eastwest;" parent="c4g44j7E7EHangzDf9bN-89" vertex="1">
          <mxGeometry y="190" width="310" height="26" as="geometry" />
        </mxCell>
        <mxCell id="c4g44j7E7EHangzDf9bN-107" value="+ Mostrar(): void" style="text;strokeColor=none;fillColor=none;align=left;verticalAlign=top;spacingLeft=4;spacingRight=4;overflow=hidden;rotatable=0;points=[[0,0.5],[1,0.5]];portConstraint=eastwest;" parent="c4g44j7E7EHangzDf9bN-89" vertex="1">
          <mxGeometry y="216" width="310" height="26" as="geometry" />
        </mxCell>
        <mxCell id="c4g44j7E7EHangzDf9bN-108" value="+ setDNI(int): void" style="text;strokeColor=none;fillColor=none;align=left;verticalAlign=top;spacingLeft=4;spacingRight=4;overflow=hidden;rotatable=0;points=[[0,0.5],[1,0.5]];portConstraint=eastwest;" parent="c4g44j7E7EHangzDf9bN-89" vertex="1">
          <mxGeometry y="242" width="310" height="26" as="geometry" />
        </mxCell>
        <mxCell id="c4g44j7E7EHangzDf9bN-110" value="+ setNombre(const char): void" style="text;strokeColor=none;fillColor=none;align=left;verticalAlign=top;spacingLeft=4;spacingRight=4;overflow=hidden;rotatable=0;points=[[0,0.5],[1,0.5]];portConstraint=eastwest;" parent="c4g44j7E7EHangzDf9bN-89" vertex="1">
          <mxGeometry y="268" width="310" height="26" as="geometry" />
        </mxCell>
        <mxCell id="c4g44j7E7EHangzDf9bN-111" value="+ setApellido(const char): void" style="text;strokeColor=none;fillColor=none;align=left;verticalAlign=top;spacingLeft=4;spacingRight=4;overflow=hidden;rotatable=0;points=[[0,0.5],[1,0.5]];portConstraint=eastwest;" parent="c4g44j7E7EHangzDf9bN-89" vertex="1">
          <mxGeometry y="294" width="310" height="26" as="geometry" />
        </mxCell>
        <mxCell id="c4g44j7E7EHangzDf9bN-112" value="+ setTelefono(int): void" style="text;strokeColor=none;fillColor=none;align=left;verticalAlign=top;spacingLeft=4;spacingRight=4;overflow=hidden;rotatable=0;points=[[0,0.5],[1,0.5]];portConstraint=eastwest;" parent="c4g44j7E7EHangzDf9bN-89" vertex="1">
          <mxGeometry y="320" width="310" height="26" as="geometry" />
        </mxCell>
        <mxCell id="2fABJtACopKfKaQ5gNMw-25" value="+ setEstado(bool): void" style="text;strokeColor=none;fillColor=none;align=left;verticalAlign=top;spacingLeft=4;spacingRight=4;overflow=hidden;rotatable=0;points=[[0,0.5],[1,0.5]];portConstraint=eastwest;" parent="c4g44j7E7EHangzDf9bN-89" vertex="1">
          <mxGeometry y="346" width="310" height="26" as="geometry" />
        </mxCell>
        <mxCell id="c4g44j7E7EHangzDf9bN-115" value="+ getDNI(): int" style="text;strokeColor=none;fillColor=none;align=left;verticalAlign=top;spacingLeft=4;spacingRight=4;overflow=hidden;rotatable=0;points=[[0,0.5],[1,0.5]];portConstraint=eastwest;" parent="c4g44j7E7EHangzDf9bN-89" vertex="1">
          <mxGeometry y="372" width="310" height="26" as="geometry" />
        </mxCell>
        <mxCell id="c4g44j7E7EHangzDf9bN-117" value="+ getNombre(): const char" style="text;strokeColor=none;fillColor=none;align=left;verticalAlign=top;spacingLeft=4;spacingRight=4;overflow=hidden;rotatable=0;points=[[0,0.5],[1,0.5]];portConstraint=eastwest;" parent="c4g44j7E7EHangzDf9bN-89" vertex="1">
          <mxGeometry y="398" width="310" height="26" as="geometry" />
        </mxCell>
        <mxCell id="c4g44j7E7EHangzDf9bN-118" value="+ getApellido(): const char" style="text;strokeColor=none;fillColor=none;align=left;verticalAlign=top;spacingLeft=4;spacingRight=4;overflow=hidden;rotatable=0;points=[[0,0.5],[1,0.5]];portConstraint=eastwest;" parent="c4g44j7E7EHangzDf9bN-89" vertex="1">
          <mxGeometry y="424" width="310" height="26" as="geometry" />
        </mxCell>
        <mxCell id="c4g44j7E7EHangzDf9bN-119" value="+ getTelefono(): int" style="text;strokeColor=none;fillColor=none;align=left;verticalAlign=top;spacingLeft=4;spacingRight=4;overflow=hidden;rotatable=0;points=[[0,0.5],[1,0.5]];portConstraint=eastwest;" parent="c4g44j7E7EHangzDf9bN-89" vertex="1">
          <mxGeometry y="450" width="310" height="26" as="geometry" />
        </mxCell>
        <mxCell id="2fABJtACopKfKaQ5gNMw-26" value="+ getEstado(): bool" style="text;strokeColor=none;fillColor=none;align=left;verticalAlign=top;spacingLeft=4;spacingRight=4;overflow=hidden;rotatable=0;points=[[0,0.5],[1,0.5]];portConstraint=eastwest;" parent="c4g44j7E7EHangzDf9bN-89" vertex="1">
          <mxGeometry y="476" width="310" height="26" as="geometry" />
        </mxCell>
        <mxCell id="2fABJtACopKfKaQ5gNMw-27" value="+ modificarCliente(int): bool" style="text;strokeColor=none;fillColor=none;align=left;verticalAlign=top;spacingLeft=4;spacingRight=4;overflow=hidden;rotatable=0;points=[[0,0.5],[1,0.5]];portConstraint=eastwest;" parent="c4g44j7E7EHangzDf9bN-89" vertex="1">
          <mxGeometry y="502" width="310" height="26" as="geometry" />
        </mxCell>
        <mxCell id="c4g44j7E7EHangzDf9bN-93" value="Reservas" style="swimlane;fontStyle=1;align=center;verticalAlign=top;childLayout=stackLayout;horizontal=1;startSize=26;horizontalStack=0;resizeParent=1;resizeParentMax=0;resizeLast=0;collapsible=1;marginBottom=0;" parent="1" vertex="1">
          <mxGeometry x="510" y="-2250" width="250" height="362" as="geometry" />
        </mxCell>
        <mxCell id="c4g44j7E7EHangzDf9bN-94" value="- datos: TipoDePago" style="text;strokeColor=none;fillColor=none;align=left;verticalAlign=top;spacingLeft=4;spacingRight=4;overflow=hidden;rotatable=0;points=[[0,0.5],[1,0.5]];portConstraint=eastwest;" parent="c4g44j7E7EHangzDf9bN-93" vertex="1">
          <mxGeometry y="26" width="250" height="26" as="geometry" />
        </mxCell>
        <mxCell id="c4g44j7E7EHangzDf9bN-122" value="-  Desde: Fecha" style="text;strokeColor=none;fillColor=none;align=left;verticalAlign=top;spacingLeft=4;spacingRight=4;overflow=hidden;rotatable=0;points=[[0,0.5],[1,0.5]];portConstraint=eastwest;" parent="c4g44j7E7EHangzDf9bN-93" vertex="1">
          <mxGeometry y="52" width="250" height="26" as="geometry" />
        </mxCell>
        <mxCell id="1wsLp_FxkqBTs4LhhR7C-6" value="&amp;nbsp;-&amp;nbsp; Hasta: Fecha" style="text;strokeColor=none;align=left;fillColor=none;html=1;verticalAlign=middle;whiteSpace=wrap;rounded=0;" parent="c4g44j7E7EHangzDf9bN-93" vertex="1">
          <mxGeometry y="78" width="250" height="30" as="geometry" />
        </mxCell>
        <mxCell id="2fABJtACopKfKaQ5gNMw-2" value="- Estado: bool" style="text;strokeColor=none;align=left;fillColor=none;html=1;verticalAlign=middle;whiteSpace=wrap;rounded=0;" parent="c4g44j7E7EHangzDf9bN-93" vertex="1">
          <mxGeometry y="108" width="250" height="30" as="geometry" />
        </mxCell>
        <mxCell id="c4g44j7E7EHangzDf9bN-95" value="" style="line;strokeWidth=1;fillColor=none;align=left;verticalAlign=middle;spacingTop=-1;spacingLeft=3;spacingRight=3;rotatable=0;labelPosition=right;points=[];portConstraint=eastwest;strokeColor=inherit;" parent="c4g44j7E7EHangzDf9bN-93" vertex="1">
          <mxGeometry y="138" width="250" height="8" as="geometry" />
        </mxCell>
        <mxCell id="1wsLp_FxkqBTs4LhhR7C-9" value="&amp;nbsp;+ Cargar(): void" style="text;strokeColor=none;align=left;fillColor=none;html=1;verticalAlign=middle;whiteSpace=wrap;rounded=0;" parent="c4g44j7E7EHangzDf9bN-93" vertex="1">
          <mxGeometry y="146" width="250" height="30" as="geometry" />
        </mxCell>
        <mxCell id="1wsLp_FxkqBTs4LhhR7C-10" value="&amp;nbsp;+ Mostrar(): void" style="text;strokeColor=none;align=left;fillColor=none;html=1;verticalAlign=middle;whiteSpace=wrap;rounded=0;" parent="c4g44j7E7EHangzDf9bN-93" vertex="1">
          <mxGeometry y="176" width="250" height="30" as="geometry" />
        </mxCell>
        <mxCell id="ZtVrWd-VW34BRdhNRwUO-3" value="+ setTipoDePago(tipoDePago): void" style="text;strokeColor=none;fillColor=none;align=left;verticalAlign=top;spacingLeft=4;spacingRight=4;overflow=hidden;rotatable=0;points=[[0,0.5],[1,0.5]];portConstraint=eastwest;" parent="c4g44j7E7EHangzDf9bN-93" vertex="1">
          <mxGeometry y="206" width="250" height="26" as="geometry" />
        </mxCell>
        <mxCell id="c4g44j7E7EHangzDf9bN-130" value="+ setFechaDesde(Fecha): void" style="text;strokeColor=none;fillColor=none;align=left;verticalAlign=top;spacingLeft=4;spacingRight=4;overflow=hidden;rotatable=0;points=[[0,0.5],[1,0.5]];portConstraint=eastwest;" parent="c4g44j7E7EHangzDf9bN-93" vertex="1">
          <mxGeometry y="232" width="250" height="26" as="geometry" />
        </mxCell>
        <mxCell id="c4g44j7E7EHangzDf9bN-132" value="+ setFechaHasta(Fecha): void" style="text;strokeColor=none;fillColor=none;align=left;verticalAlign=top;spacingLeft=4;spacingRight=4;overflow=hidden;rotatable=0;points=[[0,0.5],[1,0.5]];portConstraint=eastwest;" parent="c4g44j7E7EHangzDf9bN-93" vertex="1">
          <mxGeometry y="258" width="250" height="26" as="geometry" />
        </mxCell>
        <mxCell id="c4g44j7E7EHangzDf9bN-139" value="+ getTipoDePago(): TipoDePago" style="text;strokeColor=none;fillColor=none;align=left;verticalAlign=top;spacingLeft=4;spacingRight=4;overflow=hidden;rotatable=0;points=[[0,0.5],[1,0.5]];portConstraint=eastwest;" parent="c4g44j7E7EHangzDf9bN-93" vertex="1">
          <mxGeometry y="284" width="250" height="26" as="geometry" />
        </mxCell>
        <mxCell id="c4g44j7E7EHangzDf9bN-137" value="+ getFechaDesde(): Fecha" style="text;strokeColor=none;fillColor=none;align=left;verticalAlign=top;spacingLeft=4;spacingRight=4;overflow=hidden;rotatable=0;points=[[0,0.5],[1,0.5]];portConstraint=eastwest;" parent="c4g44j7E7EHangzDf9bN-93" vertex="1">
          <mxGeometry y="310" width="250" height="26" as="geometry" />
        </mxCell>
        <mxCell id="OzxWGUFwWPvXsnXu_AcV-3" value="+ getFechaHasta(): Fecha" style="text;strokeColor=none;fillColor=none;align=left;verticalAlign=top;spacingLeft=4;spacingRight=4;overflow=hidden;rotatable=0;points=[[0,0.5],[1,0.5]];portConstraint=eastwest;" parent="c4g44j7E7EHangzDf9bN-93" vertex="1">
          <mxGeometry y="336" width="250" height="26" as="geometry" />
        </mxCell>
        <mxCell id="c4g44j7E7EHangzDf9bN-141" value="Fecha" style="swimlane;fontStyle=1;align=center;verticalAlign=top;childLayout=stackLayout;horizontal=1;startSize=26;horizontalStack=0;resizeParent=1;resizeParentMax=0;resizeLast=0;collapsible=1;marginBottom=0;" parent="1" vertex="1">
          <mxGeometry x="-440" y="-2080" width="280" height="372" as="geometry" />
        </mxCell>
        <mxCell id="c4g44j7E7EHangzDf9bN-142" value="- dia: int" style="text;strokeColor=none;fillColor=none;align=left;verticalAlign=top;spacingLeft=4;spacingRight=4;overflow=hidden;rotatable=0;points=[[0,0.5],[1,0.5]];portConstraint=eastwest;" parent="c4g44j7E7EHangzDf9bN-141" vertex="1">
          <mxGeometry y="26" width="280" height="26" as="geometry" />
        </mxCell>
        <mxCell id="c4g44j7E7EHangzDf9bN-145" value="- mes: int" style="text;strokeColor=none;fillColor=none;align=left;verticalAlign=top;spacingLeft=4;spacingRight=4;overflow=hidden;rotatable=0;points=[[0,0.5],[1,0.5]];portConstraint=eastwest;" parent="c4g44j7E7EHangzDf9bN-141" vertex="1">
          <mxGeometry y="52" width="280" height="26" as="geometry" />
        </mxCell>
        <mxCell id="c4g44j7E7EHangzDf9bN-146" value="- anio: int" style="text;strokeColor=none;fillColor=none;align=left;verticalAlign=top;spacingLeft=4;spacingRight=4;overflow=hidden;rotatable=0;points=[[0,0.5],[1,0.5]];portConstraint=eastwest;" parent="c4g44j7E7EHangzDf9bN-141" vertex="1">
          <mxGeometry y="78" width="280" height="26" as="geometry" />
        </mxCell>
        <mxCell id="ZtVrWd-VW34BRdhNRwUO-1" value="- esBisiesto(int): bool" style="text;strokeColor=none;fillColor=none;align=left;verticalAlign=top;spacingLeft=4;spacingRight=4;overflow=hidden;rotatable=0;points=[[0,0.5],[1,0.5]];portConstraint=eastwest;" parent="c4g44j7E7EHangzDf9bN-141" vertex="1">
          <mxGeometry y="104" width="280" height="26" as="geometry" />
        </mxCell>
        <mxCell id="c4g44j7E7EHangzDf9bN-143" value="" style="line;strokeWidth=1;fillColor=none;align=left;verticalAlign=middle;spacingTop=-1;spacingLeft=3;spacingRight=3;rotatable=0;labelPosition=right;points=[];portConstraint=eastwest;strokeColor=inherit;" parent="c4g44j7E7EHangzDf9bN-141" vertex="1">
          <mxGeometry y="130" width="280" height="8" as="geometry" />
        </mxCell>
        <mxCell id="c4g44j7E7EHangzDf9bN-144" value="+ Fecha(): " style="text;strokeColor=none;fillColor=none;align=left;verticalAlign=top;spacingLeft=4;spacingRight=4;overflow=hidden;rotatable=0;points=[[0,0.5],[1,0.5]];portConstraint=eastwest;" parent="c4g44j7E7EHangzDf9bN-141" vertex="1">
          <mxGeometry y="138" width="280" height="26" as="geometry" />
        </mxCell>
        <mxCell id="c4g44j7E7EHangzDf9bN-147" value="+ Cargar(): bool" style="text;strokeColor=none;fillColor=none;align=left;verticalAlign=top;spacingLeft=4;spacingRight=4;overflow=hidden;rotatable=0;points=[[0,0.5],[1,0.5]];portConstraint=eastwest;" parent="c4g44j7E7EHangzDf9bN-141" vertex="1">
          <mxGeometry y="164" width="280" height="26" as="geometry" />
        </mxCell>
        <mxCell id="c4g44j7E7EHangzDf9bN-148" value="+ Mostrar(): void" style="text;strokeColor=none;fillColor=none;align=left;verticalAlign=top;spacingLeft=4;spacingRight=4;overflow=hidden;rotatable=0;points=[[0,0.5],[1,0.5]];portConstraint=eastwest;" parent="c4g44j7E7EHangzDf9bN-141" vertex="1">
          <mxGeometry y="190" width="280" height="26" as="geometry" />
        </mxCell>
        <mxCell id="c4g44j7E7EHangzDf9bN-149" value="+ setDia(int): bool" style="text;strokeColor=none;fillColor=none;align=left;verticalAlign=top;spacingLeft=4;spacingRight=4;overflow=hidden;rotatable=0;points=[[0,0.5],[1,0.5]];portConstraint=eastwest;" parent="c4g44j7E7EHangzDf9bN-141" vertex="1">
          <mxGeometry y="216" width="280" height="26" as="geometry" />
        </mxCell>
        <mxCell id="c4g44j7E7EHangzDf9bN-151" value="+ setMes(int): bool" style="text;strokeColor=none;fillColor=none;align=left;verticalAlign=top;spacingLeft=4;spacingRight=4;overflow=hidden;rotatable=0;points=[[0,0.5],[1,0.5]];portConstraint=eastwest;" parent="c4g44j7E7EHangzDf9bN-141" vertex="1">
          <mxGeometry y="242" width="280" height="26" as="geometry" />
        </mxCell>
        <mxCell id="c4g44j7E7EHangzDf9bN-150" value="+ setAnio(int): bool" style="text;strokeColor=none;fillColor=none;align=left;verticalAlign=top;spacingLeft=4;spacingRight=4;overflow=hidden;rotatable=0;points=[[0,0.5],[1,0.5]];portConstraint=eastwest;" parent="c4g44j7E7EHangzDf9bN-141" vertex="1">
          <mxGeometry y="268" width="280" height="26" as="geometry" />
        </mxCell>
        <mxCell id="c4g44j7E7EHangzDf9bN-153" value="+ getDia(): int" style="text;strokeColor=none;fillColor=none;align=left;verticalAlign=top;spacingLeft=4;spacingRight=4;overflow=hidden;rotatable=0;points=[[0,0.5],[1,0.5]];portConstraint=eastwest;" parent="c4g44j7E7EHangzDf9bN-141" vertex="1">
          <mxGeometry y="294" width="280" height="26" as="geometry" />
        </mxCell>
        <mxCell id="c4g44j7E7EHangzDf9bN-154" value="+ getMes(): int" style="text;strokeColor=none;fillColor=none;align=left;verticalAlign=top;spacingLeft=4;spacingRight=4;overflow=hidden;rotatable=0;points=[[0,0.5],[1,0.5]];portConstraint=eastwest;" parent="c4g44j7E7EHangzDf9bN-141" vertex="1">
          <mxGeometry y="320" width="280" height="26" as="geometry" />
        </mxCell>
        <mxCell id="c4g44j7E7EHangzDf9bN-152" value="+ getAnio(): int" style="text;strokeColor=none;fillColor=none;align=left;verticalAlign=top;spacingLeft=4;spacingRight=4;overflow=hidden;rotatable=0;points=[[0,0.5],[1,0.5]];portConstraint=eastwest;" parent="c4g44j7E7EHangzDf9bN-141" vertex="1">
          <mxGeometry y="346" width="280" height="26" as="geometry" />
        </mxCell>
        <mxCell id="3sLvgu59_XWsTAzGRzGW-1" value="Tipo de Pago" style="swimlane;fontStyle=1;align=center;verticalAlign=top;childLayout=stackLayout;horizontal=1;startSize=26;horizontalStack=0;resizeParent=1;resizeParentMax=0;resizeLast=0;collapsible=1;marginBottom=0;" parent="1" vertex="1">
          <mxGeometry x="210" y="-2220" width="190" height="622" as="geometry" />
        </mxCell>
        <mxCell id="0XVSc1wAaMi4SEL4wTnK-10" value="- InfoCliente : Cliente" style="text;strokeColor=none;fillColor=none;align=left;verticalAlign=top;spacingLeft=4;spacingRight=4;overflow=hidden;rotatable=0;points=[[0,0.5],[1,0.5]];portConstraint=eastwest;" parent="3sLvgu59_XWsTAzGRzGW-1" vertex="1">
          <mxGeometry y="26" width="190" height="26" as="geometry" />
        </mxCell>
        <mxCell id="1wsLp_FxkqBTs4LhhR7C-1" value="&amp;nbsp;- IDServicio: int" style="text;strokeColor=none;align=left;fillColor=none;html=1;verticalAlign=middle;whiteSpace=wrap;rounded=0;" parent="3sLvgu59_XWsTAzGRzGW-1" vertex="1">
          <mxGeometry y="52" width="190" height="30" as="geometry" />
        </mxCell>
        <mxCell id="3sLvgu59_XWsTAzGRzGW-2" value="- IDSector: char(30)" style="text;strokeColor=none;fillColor=none;align=left;verticalAlign=top;spacingLeft=4;spacingRight=4;overflow=hidden;rotatable=0;points=[[0,0.5],[1,0.5]];portConstraint=eastwest;" parent="3sLvgu59_XWsTAzGRzGW-1" vertex="1">
          <mxGeometry y="82" width="190" height="26" as="geometry" />
        </mxCell>
        <mxCell id="0XVSc1wAaMi4SEL4wTnK-12" value="- ModoPago : int" style="text;strokeColor=none;fillColor=none;align=left;verticalAlign=top;spacingLeft=4;spacingRight=4;overflow=hidden;rotatable=0;points=[[0,0.5],[1,0.5]];portConstraint=eastwest;" parent="3sLvgu59_XWsTAzGRzGW-1" vertex="1">
          <mxGeometry y="108" width="190" height="26" as="geometry" />
        </mxCell>
        <mxCell id="3sLvgu59_XWsTAzGRzGW-5" value="- FechaPago : Fecha" style="text;strokeColor=none;fillColor=none;align=left;verticalAlign=top;spacingLeft=4;spacingRight=4;overflow=hidden;rotatable=0;points=[[0,0.5],[1,0.5]];portConstraint=eastwest;" parent="3sLvgu59_XWsTAzGRzGW-1" vertex="1">
          <mxGeometry y="134" width="190" height="26" as="geometry" />
        </mxCell>
        <mxCell id="0XVSc1wAaMi4SEL4wTnK-11" value="- Monto : float" style="text;strokeColor=none;fillColor=none;align=left;verticalAlign=top;spacingLeft=4;spacingRight=4;overflow=hidden;rotatable=0;points=[[0,0.5],[1,0.5]];portConstraint=eastwest;" parent="3sLvgu59_XWsTAzGRzGW-1" vertex="1">
          <mxGeometry y="160" width="190" height="26" as="geometry" />
        </mxCell>
        <mxCell id="3sLvgu59_XWsTAzGRzGW-3" value="" style="line;strokeWidth=1;fillColor=none;align=left;verticalAlign=middle;spacingTop=-1;spacingLeft=3;spacingRight=3;rotatable=0;labelPosition=right;points=[];portConstraint=eastwest;strokeColor=inherit;" parent="3sLvgu59_XWsTAzGRzGW-1" vertex="1">
          <mxGeometry y="186" width="190" height="8" as="geometry" />
        </mxCell>
        <mxCell id="1wsLp_FxkqBTs4LhhR7C-11" value="+ Cargar(): void" style="text;strokeColor=none;align=left;fillColor=none;html=1;verticalAlign=middle;whiteSpace=wrap;rounded=0;" parent="3sLvgu59_XWsTAzGRzGW-1" vertex="1">
          <mxGeometry y="194" width="190" height="30" as="geometry" />
        </mxCell>
        <mxCell id="1wsLp_FxkqBTs4LhhR7C-12" value="+ Mostrar(): void" style="text;strokeColor=none;align=left;fillColor=none;html=1;verticalAlign=middle;whiteSpace=wrap;rounded=0;" parent="3sLvgu59_XWsTAzGRzGW-1" vertex="1">
          <mxGeometry y="224" width="190" height="30" as="geometry" />
        </mxCell>
        <mxCell id="1wsLp_FxkqBTs4LhhR7C-2" value="&amp;nbsp;+&amp;nbsp; setCliente(Cliente datos): void" style="text;strokeColor=none;align=left;fillColor=none;html=1;verticalAlign=middle;whiteSpace=wrap;rounded=0;" parent="3sLvgu59_XWsTAzGRzGW-1" vertex="1">
          <mxGeometry y="254" width="190" height="30" as="geometry" />
        </mxCell>
        <mxCell id="FL3PL86uWdEKUqZJIbRM-13" value="+ setIDServicio(int):  void" style="text;strokeColor=none;fillColor=none;align=left;verticalAlign=top;spacingLeft=4;spacingRight=4;overflow=hidden;rotatable=0;points=[[0,0.5],[1,0.5]];portConstraint=eastwest;" parent="3sLvgu59_XWsTAzGRzGW-1" vertex="1">
          <mxGeometry y="284" width="190" height="26" as="geometry" />
        </mxCell>
        <mxCell id="FL3PL86uWdEKUqZJIbRM-15" value="+ setIDSector(const char):  void" style="text;strokeColor=none;fillColor=none;align=left;verticalAlign=top;spacingLeft=4;spacingRight=4;overflow=hidden;rotatable=0;points=[[0,0.5],[1,0.5]];portConstraint=eastwest;" parent="3sLvgu59_XWsTAzGRzGW-1" vertex="1">
          <mxGeometry y="310" width="190" height="26" as="geometry" />
        </mxCell>
        <mxCell id="FL3PL86uWdEKUqZJIbRM-16" value="+ setModoPago(cons chat):  void" style="text;strokeColor=none;fillColor=none;align=left;verticalAlign=top;spacingLeft=4;spacingRight=4;overflow=hidden;rotatable=0;points=[[0,0.5],[1,0.5]];portConstraint=eastwest;" parent="3sLvgu59_XWsTAzGRzGW-1" vertex="1">
          <mxGeometry y="336" width="190" height="26" as="geometry" />
        </mxCell>
        <mxCell id="3sLvgu59_XWsTAzGRzGW-4" value="+ setFechaPago(Fecha): void" style="text;strokeColor=none;fillColor=none;align=left;verticalAlign=top;spacingLeft=4;spacingRight=4;overflow=hidden;rotatable=0;points=[[0,0.5],[1,0.5]];portConstraint=eastwest;" parent="3sLvgu59_XWsTAzGRzGW-1" vertex="1">
          <mxGeometry y="362" width="190" height="26" as="geometry" />
        </mxCell>
        <mxCell id="FL3PL86uWdEKUqZJIbRM-14" value="+ setMonto(float):  void" style="text;strokeColor=none;fillColor=none;align=left;verticalAlign=top;spacingLeft=4;spacingRight=4;overflow=hidden;rotatable=0;points=[[0,0.5],[1,0.5]];portConstraint=eastwest;" parent="3sLvgu59_XWsTAzGRzGW-1" vertex="1">
          <mxGeometry y="388" width="190" height="26" as="geometry" />
        </mxCell>
        <mxCell id="FL3PL86uWdEKUqZJIbRM-12" value="+ setEstado(bool):  void" style="text;strokeColor=none;fillColor=none;align=left;verticalAlign=top;spacingLeft=4;spacingRight=4;overflow=hidden;rotatable=0;points=[[0,0.5],[1,0.5]];portConstraint=eastwest;" parent="3sLvgu59_XWsTAzGRzGW-1" vertex="1">
          <mxGeometry y="414" width="190" height="26" as="geometry" />
        </mxCell>
        <mxCell id="fvFdhsXvnG8izudhamLB-14" value="+ getCliente():  Cliente" style="text;strokeColor=none;fillColor=none;align=left;verticalAlign=top;spacingLeft=4;spacingRight=4;overflow=hidden;rotatable=0;points=[[0,0.5],[1,0.5]];portConstraint=eastwest;" parent="3sLvgu59_XWsTAzGRzGW-1" vertex="1">
          <mxGeometry y="440" width="190" height="26" as="geometry" />
        </mxCell>
        <mxCell id="FL3PL86uWdEKUqZJIbRM-11" value="+ getIDServicio():  int" style="text;strokeColor=none;fillColor=none;align=left;verticalAlign=top;spacingLeft=4;spacingRight=4;overflow=hidden;rotatable=0;points=[[0,0.5],[1,0.5]];portConstraint=eastwest;" parent="3sLvgu59_XWsTAzGRzGW-1" vertex="1">
          <mxGeometry y="466" width="190" height="26" as="geometry" />
        </mxCell>
        <mxCell id="FL3PL86uWdEKUqZJIbRM-10" value="+ getIDSector():  char" style="text;strokeColor=none;fillColor=none;align=left;verticalAlign=top;spacingLeft=4;spacingRight=4;overflow=hidden;rotatable=0;points=[[0,0.5],[1,0.5]];portConstraint=eastwest;" parent="3sLvgu59_XWsTAzGRzGW-1" vertex="1">
          <mxGeometry y="492" width="190" height="26" as="geometry" />
        </mxCell>
        <mxCell id="FL3PL86uWdEKUqZJIbRM-9" value="+ getModoPago():  char" style="text;strokeColor=none;fillColor=none;align=left;verticalAlign=top;spacingLeft=4;spacingRight=4;overflow=hidden;rotatable=0;points=[[0,0.5],[1,0.5]];portConstraint=eastwest;" parent="3sLvgu59_XWsTAzGRzGW-1" vertex="1">
          <mxGeometry y="518" width="190" height="26" as="geometry" />
        </mxCell>
        <mxCell id="FL3PL86uWdEKUqZJIbRM-8" value="+ getFechaPago():  Fecha" style="text;strokeColor=none;fillColor=none;align=left;verticalAlign=top;spacingLeft=4;spacingRight=4;overflow=hidden;rotatable=0;points=[[0,0.5],[1,0.5]];portConstraint=eastwest;" parent="3sLvgu59_XWsTAzGRzGW-1" vertex="1">
          <mxGeometry y="544" width="190" height="26" as="geometry" />
        </mxCell>
        <mxCell id="FL3PL86uWdEKUqZJIbRM-7" value="+ getMonto():  float" style="text;strokeColor=none;fillColor=none;align=left;verticalAlign=top;spacingLeft=4;spacingRight=4;overflow=hidden;rotatable=0;points=[[0,0.5],[1,0.5]];portConstraint=eastwest;" parent="3sLvgu59_XWsTAzGRzGW-1" vertex="1">
          <mxGeometry y="570" width="190" height="26" as="geometry" />
        </mxCell>
        <mxCell id="FL3PL86uWdEKUqZJIbRM-6" value="+ getrEstado():  bool" style="text;strokeColor=none;fillColor=none;align=left;verticalAlign=top;spacingLeft=4;spacingRight=4;overflow=hidden;rotatable=0;points=[[0,0.5],[1,0.5]];portConstraint=eastwest;" parent="3sLvgu59_XWsTAzGRzGW-1" vertex="1">
          <mxGeometry y="596" width="190" height="26" as="geometry" />
        </mxCell>
        <mxCell id="1wsLp_FxkqBTs4LhhR7C-8" value="" style="endArrow=classic;html=1;rounded=0;" parent="1" edge="1">
          <mxGeometry width="50" height="50" relative="1" as="geometry">
            <mxPoint x="410" y="-2080" as="sourcePoint" />
            <mxPoint x="500" y="-2080" as="targetPoint" />
          </mxGeometry>
        </mxCell>
        <mxCell id="SBBTG8ncXizTwAOzIE9D-1" value="" style="endArrow=classic;html=1;rounded=0;" parent="1" edge="1">
          <mxGeometry width="50" height="50" relative="1" as="geometry">
            <mxPoint x="-140" y="-1920" as="sourcePoint" />
            <mxPoint x="190" y="-1920" as="targetPoint" />
          </mxGeometry>
        </mxCell>
        <mxCell id="JA8ZD0R-Bev4dexmNpgK-63" value="" style="endArrow=classic;html=1;rounded=0;" parent="1" edge="1">
          <mxGeometry width="50" height="50" relative="1" as="geometry">
            <mxPoint x="10" y="-1811" as="sourcePoint" />
            <mxPoint x="200" y="-1871" as="targetPoint" />
            <Array as="points">
              <mxPoint x="10" y="-1870" />
            </Array>
          </mxGeometry>
        </mxCell>
        <mxCell id="IjKwKx6nXKpyJA1mn5N5-1" value="" style="endArrow=classic;html=1;rounded=0;" parent="1" edge="1">
          <mxGeometry width="50" height="50" relative="1" as="geometry">
            <mxPoint x="-320" y="-2089" as="sourcePoint" />
            <mxPoint x="500" y="-2250" as="targetPoint" />
            <Array as="points">
              <mxPoint x="-320" y="-2250" />
            </Array>
          </mxGeometry>
        </mxCell>
        <mxCell id="IjKwKx6nXKpyJA1mn5N5-3" value="" style="endArrow=classic;html=1;rounded=0;" parent="1" edge="1">
          <mxGeometry width="50" height="50" relative="1" as="geometry">
            <mxPoint x="620" y="-1830" as="sourcePoint" />
            <mxPoint x="620" y="-1880" as="targetPoint" />
          </mxGeometry>
        </mxCell>
        <mxCell id="2fABJtACopKfKaQ5gNMw-23" value="" style="endArrow=classic;html=1;rounded=0;" parent="1" edge="1">
          <mxGeometry width="50" height="50" relative="1" as="geometry">
            <mxPoint x="900" y="-1879" as="sourcePoint" />
            <mxPoint x="770" y="-1980" as="targetPoint" />
            <Array as="points" />
          </mxGeometry>
        </mxCell>
        <mxCell id="2fABJtACopKfKaQ5gNMw-24" value="" style="endArrow=classic;html=1;rounded=0;" parent="1" edge="1">
          <mxGeometry width="50" height="50" relative="1" as="geometry">
            <mxPoint x="890" y="-1660" as="sourcePoint" />
            <mxPoint x="770" y="-1920" as="targetPoint" />
            <Array as="points">
              <mxPoint x="830" y="-1850" />
              <mxPoint x="810" y="-1880" />
            </Array>
          </mxGeometry>
        </mxCell>
        <mxCell id="SXyP9cujP76cmYv9vEQI-1" value="" style="endArrow=classic;html=1;rounded=0;" parent="1" edge="1">
          <mxGeometry width="50" height="50" relative="1" as="geometry">
            <mxPoint x="760" y="-2060" as="sourcePoint" />
            <mxPoint x="860" y="-2060" as="targetPoint" />
          </mxGeometry>
        </mxCell>
        <mxCell id="SXyP9cujP76cmYv9vEQI-2" value="General" style="swimlane;fontStyle=1;align=center;verticalAlign=top;childLayout=stackLayout;horizontal=1;startSize=26;horizontalStack=0;resizeParent=1;resizeParentMax=0;resizeLast=0;collapsible=1;marginBottom=0;" parent="1" vertex="1">
          <mxGeometry x="860" y="-2230" width="250" height="250" as="geometry" />
        </mxCell>
        <mxCell id="SXyP9cujP76cmYv9vEQI-7" value="" style="line;strokeWidth=1;fillColor=none;align=left;verticalAlign=middle;spacingTop=-1;spacingLeft=3;spacingRight=3;rotatable=0;labelPosition=right;points=[];portConstraint=eastwest;strokeColor=inherit;" parent="SXyP9cujP76cmYv9vEQI-2" vertex="1">
          <mxGeometry y="26" width="250" height="8" as="geometry" />
        </mxCell>
        <mxCell id="SXyP9cujP76cmYv9vEQI-27" value="+ General:()" style="text;strokeColor=none;align=left;fillColor=none;html=1;verticalAlign=middle;whiteSpace=wrap;rounded=0;" parent="SXyP9cujP76cmYv9vEQI-2" vertex="1">
          <mxGeometry y="34" width="250" height="36" as="geometry" />
        </mxCell>
        <mxCell id="SXyP9cujP76cmYv9vEQI-22" value="&lt;span style=&quot;text-wrap: nowrap;&quot;&gt;+ lnformeMensual(): void&lt;/span&gt;" style="text;strokeColor=none;align=left;fillColor=none;html=1;verticalAlign=middle;whiteSpace=wrap;rounded=0;" parent="SXyP9cujP76cmYv9vEQI-2" vertex="1">
          <mxGeometry y="70" width="250" height="36" as="geometry" />
        </mxCell>
        <mxCell id="SXyP9cujP76cmYv9vEQI-25" value="+ informeUltimo30Dias(): void" style="text;strokeColor=none;align=left;fillColor=none;html=1;verticalAlign=middle;whiteSpace=wrap;rounded=0;" parent="SXyP9cujP76cmYv9vEQI-2" vertex="1">
          <mxGeometry y="106" width="250" height="36" as="geometry" />
        </mxCell>
        <mxCell id="SXyP9cujP76cmYv9vEQI-26" value="+ facturacionTotal(): void" style="text;strokeColor=none;align=left;fillColor=none;html=1;verticalAlign=middle;whiteSpace=wrap;rounded=0;" parent="SXyP9cujP76cmYv9vEQI-2" vertex="1">
          <mxGeometry y="142" width="250" height="36" as="geometry" />
        </mxCell>
        <mxCell id="MUulULEXSNZeMg3-usit-54" value="+ mostrarCabañaEnUso(): void" style="text;strokeColor=none;align=left;fillColor=none;html=1;verticalAlign=middle;whiteSpace=wrap;rounded=0;" vertex="1" parent="SXyP9cujP76cmYv9vEQI-2">
          <mxGeometry y="178" width="250" height="36" as="geometry" />
        </mxCell>
        <mxCell id="MUulULEXSNZeMg3-usit-55" value="+ mostrarCarpasEnUso(): void" style="text;strokeColor=none;align=left;fillColor=none;html=1;verticalAlign=middle;whiteSpace=wrap;rounded=0;" vertex="1" parent="SXyP9cujP76cmYv9vEQI-2">
          <mxGeometry y="214" width="250" height="36" as="geometry" />
        </mxCell>
        <mxCell id="MUulULEXSNZeMg3-usit-4" value="Archivo Reservas" style="swimlane;fontStyle=1;align=center;verticalAlign=top;childLayout=stackLayout;horizontal=1;startSize=26;horizontalStack=0;resizeParent=1;resizeParentMax=0;resizeLast=0;collapsible=1;marginBottom=0;" vertex="1" parent="1">
          <mxGeometry x="440" y="-1830" width="370" height="242" as="geometry" />
        </mxCell>
        <mxCell id="MUulULEXSNZeMg3-usit-5" value="- AperturaArchivo: const char" style="text;strokeColor=none;fillColor=none;align=left;verticalAlign=top;spacingLeft=4;spacingRight=4;overflow=hidden;rotatable=0;points=[[0,0.5],[1,0.5]];portConstraint=eastwest;" vertex="1" parent="MUulULEXSNZeMg3-usit-4">
          <mxGeometry y="26" width="370" height="26" as="geometry" />
        </mxCell>
        <mxCell id="MUulULEXSNZeMg3-usit-6" value="" style="line;strokeWidth=1;fillColor=none;align=left;verticalAlign=middle;spacingTop=-1;spacingLeft=3;spacingRight=3;rotatable=0;labelPosition=right;points=[];portConstraint=eastwest;strokeColor=inherit;" vertex="1" parent="MUulULEXSNZeMg3-usit-4">
          <mxGeometry y="52" width="370" height="8" as="geometry" />
        </mxCell>
        <mxCell id="MUulULEXSNZeMg3-usit-7" value="+ LeerArchivos(): void" style="text;strokeColor=none;fillColor=none;align=left;verticalAlign=top;spacingLeft=4;spacingRight=4;overflow=hidden;rotatable=0;points=[[0,0.5],[1,0.5]];portConstraint=eastwest;" vertex="1" parent="MUulULEXSNZeMg3-usit-4">
          <mxGeometry y="60" width="370" height="26" as="geometry" />
        </mxCell>
        <mxCell id="MUulULEXSNZeMg3-usit-8" value="+ grabarEnDisco(Reservas obj): bool" style="text;strokeColor=none;fillColor=none;align=left;verticalAlign=top;spacingLeft=4;spacingRight=4;overflow=hidden;rotatable=0;points=[[0,0.5],[1,0.5]];portConstraint=eastwest;" vertex="1" parent="MUulULEXSNZeMg3-usit-4">
          <mxGeometry y="86" width="370" height="26" as="geometry" />
        </mxCell>
        <mxCell id="MUulULEXSNZeMg3-usit-9" value="+ modificarReservas(int Dni): bool" style="text;strokeColor=none;fillColor=none;align=left;verticalAlign=top;spacingLeft=4;spacingRight=4;overflow=hidden;rotatable=0;points=[[0,0.5],[1,0.5]];portConstraint=eastwest;" vertex="1" parent="MUulULEXSNZeMg3-usit-4">
          <mxGeometry y="112" width="370" height="26" as="geometry" />
        </mxCell>
        <mxCell id="MUulULEXSNZeMg3-usit-10" value="+ contarRegistro(int pos): int" style="text;strokeColor=none;fillColor=none;align=left;verticalAlign=top;spacingLeft=4;spacingRight=4;overflow=hidden;rotatable=0;points=[[0,0.5],[1,0.5]];portConstraint=eastwest;" vertex="1" parent="MUulULEXSNZeMg3-usit-4">
          <mxGeometry y="138" width="370" height="26" as="geometry" />
        </mxCell>
        <mxCell id="MUulULEXSNZeMg3-usit-13" value="+ VerificarEstadoReserva(int numeroReserva, int IDServicio): void" style="text;strokeColor=none;fillColor=none;align=left;verticalAlign=top;spacingLeft=4;spacingRight=4;overflow=hidden;rotatable=0;points=[[0,0.5],[1,0.5]];portConstraint=eastwest;" vertex="1" parent="MUulULEXSNZeMg3-usit-4">
          <mxGeometry y="164" width="370" height="26" as="geometry" />
        </mxCell>
        <mxCell id="MUulULEXSNZeMg3-usit-48" value="+ crearBackupManual(): void" style="text;strokeColor=none;fillColor=none;align=left;verticalAlign=top;spacingLeft=4;spacingRight=4;overflow=hidden;rotatable=0;points=[[0,0.5],[1,0.5]];portConstraint=eastwest;" vertex="1" parent="MUulULEXSNZeMg3-usit-4">
          <mxGeometry y="190" width="370" height="26" as="geometry" />
        </mxCell>
        <mxCell id="MUulULEXSNZeMg3-usit-51" value="+ buscarRegistroDni(int Dni): Reservas" style="text;strokeColor=none;fillColor=none;align=left;verticalAlign=top;spacingLeft=4;spacingRight=4;overflow=hidden;rotatable=0;points=[[0,0.5],[1,0.5]];portConstraint=eastwest;" vertex="1" parent="MUulULEXSNZeMg3-usit-4">
          <mxGeometry y="216" width="370" height="26" as="geometry" />
        </mxCell>
        <mxCell id="MUulULEXSNZeMg3-usit-16" value="Archivo Clientes" style="swimlane;fontStyle=1;align=center;verticalAlign=top;childLayout=stackLayout;horizontal=1;startSize=26;horizontalStack=0;resizeParent=1;resizeParentMax=0;resizeLast=0;collapsible=1;marginBottom=0;" vertex="1" parent="1">
          <mxGeometry x="240" y="-1560" width="370" height="242" as="geometry" />
        </mxCell>
        <mxCell id="MUulULEXSNZeMg3-usit-17" value="- AperturaArchivo: const char" style="text;strokeColor=none;fillColor=none;align=left;verticalAlign=top;spacingLeft=4;spacingRight=4;overflow=hidden;rotatable=0;points=[[0,0.5],[1,0.5]];portConstraint=eastwest;" vertex="1" parent="MUulULEXSNZeMg3-usit-16">
          <mxGeometry y="26" width="370" height="26" as="geometry" />
        </mxCell>
        <mxCell id="MUulULEXSNZeMg3-usit-18" value="" style="line;strokeWidth=1;fillColor=none;align=left;verticalAlign=middle;spacingTop=-1;spacingLeft=3;spacingRight=3;rotatable=0;labelPosition=right;points=[];portConstraint=eastwest;strokeColor=inherit;" vertex="1" parent="MUulULEXSNZeMg3-usit-16">
          <mxGeometry y="52" width="370" height="8" as="geometry" />
        </mxCell>
        <mxCell id="MUulULEXSNZeMg3-usit-19" value="+ LeerArchivos(int IDServicio): bool" style="text;strokeColor=none;fillColor=none;align=left;verticalAlign=top;spacingLeft=4;spacingRight=4;overflow=hidden;rotatable=0;points=[[0,0.5],[1,0.5]];portConstraint=eastwest;" vertex="1" parent="MUulULEXSNZeMg3-usit-16">
          <mxGeometry y="60" width="370" height="26" as="geometry" />
        </mxCell>
        <mxCell id="MUulULEXSNZeMg3-usit-20" value="+ grabarEnDisco(int IDServicio): bool" style="text;strokeColor=none;fillColor=none;align=left;verticalAlign=top;spacingLeft=4;spacingRight=4;overflow=hidden;rotatable=0;points=[[0,0.5],[1,0.5]];portConstraint=eastwest;" vertex="1" parent="MUulULEXSNZeMg3-usit-16">
          <mxGeometry y="86" width="370" height="26" as="geometry" />
        </mxCell>
        <mxCell id="MUulULEXSNZeMg3-usit-21" value="+ modificarCliente(int Dni): bool" style="text;strokeColor=none;fillColor=none;align=left;verticalAlign=top;spacingLeft=4;spacingRight=4;overflow=hidden;rotatable=0;points=[[0,0.5],[1,0.5]];portConstraint=eastwest;" vertex="1" parent="MUulULEXSNZeMg3-usit-16">
          <mxGeometry y="112" width="370" height="26" as="geometry" />
        </mxCell>
        <mxCell id="MUulULEXSNZeMg3-usit-22" value="+ contarRegistro(): int" style="text;strokeColor=none;fillColor=none;align=left;verticalAlign=top;spacingLeft=4;spacingRight=4;overflow=hidden;rotatable=0;points=[[0,0.5],[1,0.5]];portConstraint=eastwest;" vertex="1" parent="MUulULEXSNZeMg3-usit-16">
          <mxGeometry y="138" width="370" height="26" as="geometry" />
        </mxCell>
        <mxCell id="MUulULEXSNZeMg3-usit-26" value="+ buscarPorDni(int Dni): Cliente" style="text;strokeColor=none;fillColor=none;align=left;verticalAlign=top;spacingLeft=4;spacingRight=4;overflow=hidden;rotatable=0;points=[[0,0.5],[1,0.5]];portConstraint=eastwest;" vertex="1" parent="MUulULEXSNZeMg3-usit-16">
          <mxGeometry y="164" width="370" height="26" as="geometry" />
        </mxCell>
        <mxCell id="MUulULEXSNZeMg3-usit-24" value="+ CrearBackupsManual(): bool" style="text;strokeColor=none;fillColor=none;align=left;verticalAlign=top;spacingLeft=4;spacingRight=4;overflow=hidden;rotatable=0;points=[[0,0.5],[1,0.5]];portConstraint=eastwest;" vertex="1" parent="MUulULEXSNZeMg3-usit-16">
          <mxGeometry y="190" width="370" height="26" as="geometry" />
        </mxCell>
        <mxCell id="MUulULEXSNZeMg3-usit-25" value="+ VerificarEstado(int Dni): void" style="text;strokeColor=none;fillColor=none;align=left;verticalAlign=top;spacingLeft=4;spacingRight=4;overflow=hidden;rotatable=0;points=[[0,0.5],[1,0.5]];portConstraint=eastwest;" vertex="1" parent="MUulULEXSNZeMg3-usit-16">
          <mxGeometry y="216" width="370" height="26" as="geometry" />
        </mxCell>
        <mxCell id="MUulULEXSNZeMg3-usit-27" value="" style="endArrow=classic;html=1;rounded=0;exitX=0;exitY=0.769;exitDx=0;exitDy=0;exitPerimeter=0;" edge="1" parent="1" source="MUulULEXSNZeMg3-usit-19">
          <mxGeometry width="50" height="50" relative="1" as="geometry">
            <mxPoint x="220" y="-1480" as="sourcePoint" />
            <mxPoint x="180" y="-1480" as="targetPoint" />
            <Array as="points">
              <mxPoint x="210" y="-1480" />
            </Array>
          </mxGeometry>
        </mxCell>
        <mxCell id="MUulULEXSNZeMg3-usit-28" value="Archivo Cabaña" style="swimlane;fontStyle=1;align=center;verticalAlign=top;childLayout=stackLayout;horizontal=1;startSize=26;horizontalStack=0;resizeParent=1;resizeParentMax=0;resizeLast=0;collapsible=1;marginBottom=0;" vertex="1" parent="1">
          <mxGeometry x="910" y="-1930" width="370" height="242" as="geometry" />
        </mxCell>
        <mxCell id="MUulULEXSNZeMg3-usit-29" value="- AperturaArchivo: const char" style="text;strokeColor=none;fillColor=none;align=left;verticalAlign=top;spacingLeft=4;spacingRight=4;overflow=hidden;rotatable=0;points=[[0,0.5],[1,0.5]];portConstraint=eastwest;" vertex="1" parent="MUulULEXSNZeMg3-usit-28">
          <mxGeometry y="26" width="370" height="26" as="geometry" />
        </mxCell>
        <mxCell id="MUulULEXSNZeMg3-usit-30" value="" style="line;strokeWidth=1;fillColor=none;align=left;verticalAlign=middle;spacingTop=-1;spacingLeft=3;spacingRight=3;rotatable=0;labelPosition=right;points=[];portConstraint=eastwest;strokeColor=inherit;" vertex="1" parent="MUulULEXSNZeMg3-usit-28">
          <mxGeometry y="52" width="370" height="8" as="geometry" />
        </mxCell>
        <mxCell id="MUulULEXSNZeMg3-usit-31" value="+ LeerArchivos(): bool" style="text;strokeColor=none;fillColor=none;align=left;verticalAlign=top;spacingLeft=4;spacingRight=4;overflow=hidden;rotatable=0;points=[[0,0.5],[1,0.5]];portConstraint=eastwest;" vertex="1" parent="MUulULEXSNZeMg3-usit-28">
          <mxGeometry y="60" width="370" height="26" as="geometry" />
        </mxCell>
        <mxCell id="MUulULEXSNZeMg3-usit-32" value="+ grabarEnDisco(int IDServicio): bool" style="text;strokeColor=none;fillColor=none;align=left;verticalAlign=top;spacingLeft=4;spacingRight=4;overflow=hidden;rotatable=0;points=[[0,0.5],[1,0.5]];portConstraint=eastwest;" vertex="1" parent="MUulULEXSNZeMg3-usit-28">
          <mxGeometry y="86" width="370" height="26" as="geometry" />
        </mxCell>
        <mxCell id="MUulULEXSNZeMg3-usit-33" value="+ modificarReservas(int IDServicio): bool" style="text;strokeColor=none;fillColor=none;align=left;verticalAlign=top;spacingLeft=4;spacingRight=4;overflow=hidden;rotatable=0;points=[[0,0.5],[1,0.5]];portConstraint=eastwest;" vertex="1" parent="MUulULEXSNZeMg3-usit-28">
          <mxGeometry y="112" width="370" height="26" as="geometry" />
        </mxCell>
        <mxCell id="MUulULEXSNZeMg3-usit-34" value="+ contarRegistro(int IDServicio): int" style="text;strokeColor=none;fillColor=none;align=left;verticalAlign=top;spacingLeft=4;spacingRight=4;overflow=hidden;rotatable=0;points=[[0,0.5],[1,0.5]];portConstraint=eastwest;" vertex="1" parent="MUulULEXSNZeMg3-usit-28">
          <mxGeometry y="138" width="370" height="26" as="geometry" />
        </mxCell>
        <mxCell id="MUulULEXSNZeMg3-usit-37" value="+ VerificarEstadoReserva(int numeroReserva, int IDServicio): void" style="text;strokeColor=none;fillColor=none;align=left;verticalAlign=top;spacingLeft=4;spacingRight=4;overflow=hidden;rotatable=0;points=[[0,0.5],[1,0.5]];portConstraint=eastwest;" vertex="1" parent="MUulULEXSNZeMg3-usit-28">
          <mxGeometry y="164" width="370" height="26" as="geometry" />
        </mxCell>
        <mxCell id="MUulULEXSNZeMg3-usit-49" value="+ crearBackupManual(): void" style="text;strokeColor=none;fillColor=none;align=left;verticalAlign=top;spacingLeft=4;spacingRight=4;overflow=hidden;rotatable=0;points=[[0,0.5],[1,0.5]];portConstraint=eastwest;" vertex="1" parent="MUulULEXSNZeMg3-usit-28">
          <mxGeometry y="190" width="370" height="26" as="geometry" />
        </mxCell>
        <mxCell id="MUulULEXSNZeMg3-usit-52" value="+ buscarRegistroDni(int Dni): Reservas" style="text;strokeColor=none;fillColor=none;align=left;verticalAlign=top;spacingLeft=4;spacingRight=4;overflow=hidden;rotatable=0;points=[[0,0.5],[1,0.5]];portConstraint=eastwest;" vertex="1" parent="MUulULEXSNZeMg3-usit-28">
          <mxGeometry y="216" width="370" height="26" as="geometry" />
        </mxCell>
        <mxCell id="MUulULEXSNZeMg3-usit-38" value="Archivo  Carpas" style="swimlane;fontStyle=1;align=center;verticalAlign=top;childLayout=stackLayout;horizontal=1;startSize=26;horizontalStack=0;resizeParent=1;resizeParentMax=0;resizeLast=0;collapsible=1;marginBottom=0;" vertex="1" parent="1">
          <mxGeometry x="880" y="-1650" width="370" height="242" as="geometry" />
        </mxCell>
        <mxCell id="MUulULEXSNZeMg3-usit-39" value="- AperturaArchivo: const char" style="text;strokeColor=none;fillColor=none;align=left;verticalAlign=top;spacingLeft=4;spacingRight=4;overflow=hidden;rotatable=0;points=[[0,0.5],[1,0.5]];portConstraint=eastwest;" vertex="1" parent="MUulULEXSNZeMg3-usit-38">
          <mxGeometry y="26" width="370" height="26" as="geometry" />
        </mxCell>
        <mxCell id="MUulULEXSNZeMg3-usit-40" value="" style="line;strokeWidth=1;fillColor=none;align=left;verticalAlign=middle;spacingTop=-1;spacingLeft=3;spacingRight=3;rotatable=0;labelPosition=right;points=[];portConstraint=eastwest;strokeColor=inherit;" vertex="1" parent="MUulULEXSNZeMg3-usit-38">
          <mxGeometry y="52" width="370" height="8" as="geometry" />
        </mxCell>
        <mxCell id="MUulULEXSNZeMg3-usit-41" value="+ LeerArchivos(): bool" style="text;strokeColor=none;fillColor=none;align=left;verticalAlign=top;spacingLeft=4;spacingRight=4;overflow=hidden;rotatable=0;points=[[0,0.5],[1,0.5]];portConstraint=eastwest;" vertex="1" parent="MUulULEXSNZeMg3-usit-38">
          <mxGeometry y="60" width="370" height="26" as="geometry" />
        </mxCell>
        <mxCell id="MUulULEXSNZeMg3-usit-42" value="+ grabarEnDisco(int IDServicio): bool" style="text;strokeColor=none;fillColor=none;align=left;verticalAlign=top;spacingLeft=4;spacingRight=4;overflow=hidden;rotatable=0;points=[[0,0.5],[1,0.5]];portConstraint=eastwest;" vertex="1" parent="MUulULEXSNZeMg3-usit-38">
          <mxGeometry y="86" width="370" height="26" as="geometry" />
        </mxCell>
        <mxCell id="MUulULEXSNZeMg3-usit-43" value="+ modificarReservas(int IDServicio): bool" style="text;strokeColor=none;fillColor=none;align=left;verticalAlign=top;spacingLeft=4;spacingRight=4;overflow=hidden;rotatable=0;points=[[0,0.5],[1,0.5]];portConstraint=eastwest;" vertex="1" parent="MUulULEXSNZeMg3-usit-38">
          <mxGeometry y="112" width="370" height="26" as="geometry" />
        </mxCell>
        <mxCell id="MUulULEXSNZeMg3-usit-44" value="+ contarRegistro(int IDServicio): int" style="text;strokeColor=none;fillColor=none;align=left;verticalAlign=top;spacingLeft=4;spacingRight=4;overflow=hidden;rotatable=0;points=[[0,0.5],[1,0.5]];portConstraint=eastwest;" vertex="1" parent="MUulULEXSNZeMg3-usit-38">
          <mxGeometry y="138" width="370" height="26" as="geometry" />
        </mxCell>
        <mxCell id="MUulULEXSNZeMg3-usit-47" value="+ VerificarEstadoReserva(int numeroReserva, int IDServicio): void" style="text;strokeColor=none;fillColor=none;align=left;verticalAlign=top;spacingLeft=4;spacingRight=4;overflow=hidden;rotatable=0;points=[[0,0.5],[1,0.5]];portConstraint=eastwest;" vertex="1" parent="MUulULEXSNZeMg3-usit-38">
          <mxGeometry y="164" width="370" height="26" as="geometry" />
        </mxCell>
        <mxCell id="MUulULEXSNZeMg3-usit-50" value="+ crearBackupManual(): void" style="text;strokeColor=none;fillColor=none;align=left;verticalAlign=top;spacingLeft=4;spacingRight=4;overflow=hidden;rotatable=0;points=[[0,0.5],[1,0.5]];portConstraint=eastwest;" vertex="1" parent="MUulULEXSNZeMg3-usit-38">
          <mxGeometry y="190" width="370" height="26" as="geometry" />
        </mxCell>
        <mxCell id="MUulULEXSNZeMg3-usit-53" value="+ buscarRegistroDni(int Dni): Reservas" style="text;strokeColor=none;fillColor=none;align=left;verticalAlign=top;spacingLeft=4;spacingRight=4;overflow=hidden;rotatable=0;points=[[0,0.5],[1,0.5]];portConstraint=eastwest;" vertex="1" parent="MUulULEXSNZeMg3-usit-38">
          <mxGeometry y="216" width="370" height="26" as="geometry" />
        </mxCell>
      </root>
    </mxGraphModel>
  </diagram>
</mxfile>
